<svg width="100" height="100" viewBox="0 0 100 100" fill="none" xmlns="http://www.w3.org/2000/svg">
<g filter="url(#filter0_d_35_708)">
<circle cx="46" cy="46" r="30" fill="#738047"/>
</g>
<path d="M60.2969 44.125H58.5177C57.7026 38.6362 53.3638 34.2974 47.875 33.4823V31.7031C47.875 31.3148 47.5602 31 47.1719 31H44.8281C44.4398 31 44.125 31.3148 44.125 31.7031V33.4823C38.6362 34.2974 34.2974 38.6362 33.4823 44.125H31.7031C31.3148 44.125 31 44.4398 31 44.8281V47.1719C31 47.5602 31.3148 47.875 31.7031 47.875H33.4823C34.2974 53.3638 38.6362 57.7026 44.125 58.5177V60.2969C44.125 60.6852 44.4398 61 44.8281 61H47.1719C47.5602 61 47.875 60.6852 47.875 60.2969V58.5177C53.3638 57.7026 57.7026 53.3638 58.5177 47.875H60.2969C60.6852 47.875 61 47.5602 61 47.1719V44.8281C61 44.4398 60.6852 44.125 60.2969 44.125ZM47.875 54.709V52.3281C47.875 51.9398 47.5602 51.625 47.1719 51.625H44.8281C44.4398 51.625 44.125 51.9398 44.125 52.3281V54.709C40.7164 53.9823 38.0185 51.2877 37.291 47.875H39.6719C40.0602 47.875 40.375 47.5602 40.375 47.1719V44.8281C40.375 44.4398 40.0602 44.125 39.6719 44.125H37.291C38.0177 40.7164 40.7123 38.0185 44.125 37.291V39.6719C44.125 40.0602 44.4398 40.375 44.8281 40.375H47.1719C47.5602 40.375 47.875 40.0602 47.875 39.6719V37.291C51.2836 38.0177 53.9815 40.7123 54.709 44.125H52.3281C51.9398 44.125 51.625 44.4398 51.625 44.8281V47.1719C51.625 47.5602 51.9398 47.875 52.3281 47.875H54.709C53.9823 51.2836 51.2877 53.9815 47.875 54.709ZM47.875 46C47.875 47.0355 47.0355 47.875 46 47.875C44.9645 47.875 44.125 47.0355 44.125 46C44.125 44.9645 44.9645 44.125 46 44.125C47.0355 44.125 47.875 44.9645 47.875 46Z" fill="white"/>
<defs>
<filter id="filter0_d_35_708" x="0" y="0" width="100" height="100" filterUnits="userSpaceOnUse" color-interpolation-filters="sRGB">
<feFlood flood-opacity="0" result="BackgroundImageFix"/>
<feColorMatrix in="SourceAlpha" type="matrix" values="0 0 0 0 0 0 0 0 0 0 0 0 0 0 0 0 0 0 127 0" result="hardAlpha"/>
<feOffset dx="4" dy="4"/>
<feGaussianBlur stdDeviation="10"/>
<feComposite in2="hardAlpha" operator="out"/>
<feColorMatrix type="matrix" values="0 0 0 0 0.4625 0 0 0 0 0.4625 0 0 0 0 0.4625 0 0 0 0.3 0"/>
<feBlend mode="normal" in2="BackgroundImageFix" result="effect1_dropShadow_35_708"/>
<feBlend mode="normal" in="SourceGraphic" in2="effect1_dropShadow_35_708" result="shape"/>
</filter>
</defs>
</svg>
