<svg width="24" height="16" viewBox="0 0 24 16" fill="none" xmlns="http://www.w3.org/2000/svg">
<path d="M19.2191 5.56254C18.6051 5.5601 18.018 5.67508 17.4777 5.88608L14.5647 1.11951C14.484 0.987379 14.3714 0.878359 14.2376 0.802763C14.1038 0.727167 13.9532 0.687495 13.8 0.6875H11.4C11.0687 0.6875 10.8 0.96031 10.8 1.29688V1.90625C10.8 2.24282 11.0687 2.51562 11.4 2.51562H13.2994L13.858 3.42969H9.60009V2.82031C9.60009 2.48375 9.33147 2.21094 9.00008 2.21094H5.72037C5.21633 2.21094 4.79123 2.62984 4.80027 3.14164C4.80897 3.63844 5.20812 4.03906 5.70008 4.03906H7.52731L6.42417 5.84891C5.92043 5.66495 5.37777 5.56391 4.81197 5.5625C2.17853 5.55603 0.0154588 7.73386 8.376e-05 10.4084C-0.0154787 13.1141 2.13957 15.3125 4.80008 15.3125C7.03666 15.3125 8.91601 13.7589 9.44885 11.6562H11.4001C11.5534 11.6562 11.7041 11.6165 11.8381 11.5407C11.972 11.465 12.0846 11.3557 12.1653 11.2233L15.3889 5.9346L15.9491 6.85121C14.9945 7.74425 14.3971 9.0252 14.4 10.4479C14.4055 13.0695 16.5713 15.2868 19.1524 15.3122C21.8001 15.3383 23.9592 13.1869 23.9994 10.5136C24.0402 7.8117 21.8797 5.57305 19.2191 5.56254ZM7.00313 8.37218C7.3679 8.77318 7.62837 9.27333 7.73971 9.82812H6.11573L7.00313 8.37218ZM4.80008 13.4844C3.14588 13.4844 1.80008 12.1175 1.80008 10.4375C1.80008 8.75745 3.14588 7.39062 4.80008 7.39062C5.02017 7.39062 5.23456 7.41549 5.4413 7.46143L3.73486 10.2611C3.36432 10.8689 3.7955 11.6562 4.50008 11.6562H7.54883C7.08496 12.7312 6.02776 13.4844 4.80008 13.4844ZM10.8987 9.82812H9.56281C9.41431 8.61867 8.82946 7.54701 7.97345 6.78026L8.90142 5.25781H13.6844L10.8987 9.82812ZM19.0383 13.48C17.4995 13.3976 16.2615 12.1207 16.2023 10.5567C16.1719 9.75233 16.4511 9.01358 16.9274 8.452L18.5936 11.1784C18.7684 11.4644 19.1383 11.5523 19.4198 11.3748L19.9296 11.0535C20.2112 10.876 20.2977 10.5003 20.123 10.2144L18.4554 7.48576C18.6987 7.42249 18.9489 7.39054 19.2001 7.39066C20.8543 7.39066 22.2001 8.75749 22.2001 10.4375C22.2 12.172 20.7656 13.5726 19.0383 13.48Z" fill="white"/>
</svg>
