<svg width="16" height="16" viewBox="0 0 16 16" fill="none" xmlns="http://www.w3.org/2000/svg">
<path d="M12.9219 9.96875H9.96875C9.42734 9.96875 8.98438 9.52578 8.98438 8.98438C8.98438 8.44297 9.42734 8 9.96875 8H12.9219C12.9219 8 15.875 4.7085 15.875 3.07812C15.875 1.44775 14.5522 0.125 12.9219 0.125C11.2915 0.125 9.96875 1.44775 9.96875 3.07812C9.96875 3.86255 10.6517 5.02842 11.3623 6.03125H9.96875C8.34146 6.03125 7.01562 7.35708 7.01562 8.98438C7.01562 10.6117 8.34146 11.9375 9.96875 11.9375H12.9219C13.4633 11.9375 13.9062 12.3805 13.9062 12.9219C13.9062 13.4633 13.4633 13.9062 12.9219 13.9062H5.8313C5.33911 14.6691 4.79155 15.3736 4.37627 15.875H12.9219C14.5492 15.875 15.875 14.5492 15.875 12.9219C15.875 11.2946 14.5492 9.96875 12.9219 9.96875ZM12.9219 2.09375C13.4664 2.09375 13.9062 2.53364 13.9062 3.07812C13.9062 3.62261 13.4664 4.0625 12.9219 4.0625C12.3774 4.0625 11.9375 3.62261 11.9375 3.07812C11.9375 2.53364 12.3774 2.09375 12.9219 2.09375ZM3.07812 8C1.44775 8 0.125 9.32275 0.125 10.9531C0.125 12.5835 3.07812 15.875 3.07812 15.875C3.07812 15.875 6.03125 12.5835 6.03125 10.9531C6.03125 9.32275 4.7085 8 3.07812 8ZM3.07812 11.9375C2.53364 11.9375 2.09375 11.4976 2.09375 10.9531C2.09375 10.4086 2.53364 9.96875 3.07812 9.96875C3.62261 9.96875 4.0625 10.4086 4.0625 10.9531C4.0625 11.4976 3.62261 11.9375 3.07812 11.9375Z" fill="#738047"/>
</svg>
