<svg width="26" height="26" viewBox="0 0 26 26" fill="none" xmlns="http://www.w3.org/2000/svg">
<path d="M23.2143 0H2.78571C1.24777 0 0 1.24777 0 2.78571V23.2143C0 24.7522 1.24777 26 2.78571 26H23.2143C24.7522 26 26 24.7522 26 23.2143V2.78571C26 1.24777 24.7522 0 23.2143 0ZM13.9286 16.7143H11.1429V19.5C11.1429 20.0107 10.725 20.4286 10.2143 20.4286H8.35714C7.84643 20.4286 7.42857 20.0107 7.42857 19.5V6.5C7.42857 5.98929 7.84643 5.57143 8.35714 5.57143H13.9286C16.9987 5.57143 19.5 8.07277 19.5 11.1429C19.5 14.2129 16.9987 16.7143 13.9286 16.7143ZM13.9286 9.28571H11.1429V13H13.9286C14.95 13 15.7857 12.1643 15.7857 11.1429C15.7857 10.1214 14.95 9.28571 13.9286 9.28571Z" fill="#464646"/>
</svg>
