<svg width="20" height="20" viewBox="0 0 20 20" fill="none" xmlns="http://www.w3.org/2000/svg">
<path d="M17.6607 0.25H2.33929C1.18583 0.25 0.25 1.18583 0.25 2.33929V17.6607C0.25 18.8142 1.18583 19.75 2.33929 19.75H17.6607C18.8142 19.75 19.75 18.8142 19.75 17.6607V2.33929C19.75 1.18583 18.8142 0.25 17.6607 0.25ZM10.6964 12.7857H8.60714V14.875C8.60714 15.258 8.29375 15.5714 7.91071 15.5714H6.51786C6.13482 15.5714 5.82143 15.258 5.82143 14.875V5.125C5.82143 4.74196 6.13482 4.42857 6.51786 4.42857H10.6964C12.999 4.42857 14.875 6.30458 14.875 8.60714C14.875 10.9097 12.999 12.7857 10.6964 12.7857ZM10.6964 7.21429H8.60714V10H10.6964C11.4625 10 12.0893 9.37321 12.0893 8.60714C12.0893 7.84107 11.4625 7.21429 10.6964 7.21429Z" fill="#738047"/>
</svg>
