<svg width="16" height="16" viewBox="0 0 16 16" fill="none" xmlns="http://www.w3.org/2000/svg">
<path d="M13.7455 0.6875H2.25446C1.38937 0.6875 0.6875 1.38937 0.6875 2.25446V13.7455C0.6875 14.6106 1.38937 15.3125 2.25446 15.3125H13.7455C14.6106 15.3125 15.3125 14.6106 15.3125 13.7455V2.25446C15.3125 1.38937 14.6106 0.6875 13.7455 0.6875ZM8.52232 10.0893H6.95536V11.6562C6.95536 11.9435 6.72031 12.1786 6.43304 12.1786H5.38839C5.10112 12.1786 4.86607 11.9435 4.86607 11.6562V4.34375C4.86607 4.05647 5.10112 3.82143 5.38839 3.82143H8.52232C10.2492 3.82143 11.6562 5.22843 11.6562 6.95536C11.6562 8.68228 10.2492 10.0893 8.52232 10.0893ZM8.52232 5.91071H6.95536V8H8.52232C9.09687 8 9.56696 7.52991 9.56696 6.95536C9.56696 6.3808 9.09687 5.91071 8.52232 5.91071Z" fill="#9A9A9A"/>
</svg>
