<svg width="12" height="12" viewBox="0 0 12 12" fill="none" xmlns="http://www.w3.org/2000/svg">
<path d="M10.9506 8.16967L8.65364 7.18528C8.55552 7.14346 8.44647 7.13465 8.34291 7.16017C8.23934 7.18569 8.14687 7.24416 8.07941 7.32679L7.06221 8.56958C5.4658 7.81689 4.18106 6.53215 3.42837 4.93574L4.67116 3.91853C4.75395 3.8512 4.81254 3.75873 4.83808 3.65512C4.86361 3.5515 4.85469 3.44239 4.81267 3.3443L3.82828 1.04739C3.78216 0.941649 3.70059 0.855317 3.59763 0.803279C3.49468 0.75124 3.37679 0.736756 3.2643 0.762324L1.13145 1.25452C1.023 1.27956 0.926236 1.34063 0.856957 1.42775C0.787679 1.51487 0.749975 1.6229 0.75 1.73421C0.75 6.99455 5.01365 11.25 10.2658 11.25C10.3771 11.2501 10.4852 11.2124 10.5724 11.1431C10.6595 11.0738 10.7206 10.977 10.7457 10.8685L11.2379 8.7357C11.2633 8.62266 11.2485 8.5043 11.196 8.40099C11.1436 8.29769 11.0568 8.21589 10.9506 8.16967Z" fill="#9A9A9A"/>
</svg>
