<svg width="58" height="77" viewBox="0 0 58 77" fill="none" xmlns="http://www.w3.org/2000/svg">
<ellipse cx="29" cy="72.5" rx="15" ry="4.5" fill="#A4B375"/>
<path d="M28.8003 0C12.9207 0 0.000293201 12.9204 0.000293201 28.782C-0.104107 51.984 27.7059 71.2224 28.8003 72C28.8003 72 57.7047 51.984 57.6003 28.8C57.6003 12.9204 44.6799 0 28.8003 0ZM28.8003 43.2C20.8443 43.2 14.4003 36.756 14.4003 28.8C14.4003 20.844 20.8443 14.4 28.8003 14.4C36.7563 14.4 43.2003 20.844 43.2003 28.8C43.2003 36.756 36.7563 43.2 28.8003 43.2Z" fill="#738047"/>
<circle cx="29" cy="29" r="19" fill="white"/>
<path d="M19.7129 30.312L22.2429 26.264C22.7049 25.384 23.1449 24.482 23.5409 23.624H23.6289C23.5849 24.57 23.4969 26.044 23.4969 26.99V30.312H19.7129ZM28.4469 30.312H26.5109V20.72H22.6389L16.5669 30.576V32.776H23.4969V37H26.5109V32.776H28.4469V30.312ZM35.968 37.308C39.07 37.308 41.688 35.57 41.688 32.578C41.688 30.444 40.28 29.08 38.432 28.574V28.464C40.17 27.782 41.16 26.506 41.16 24.746C41.16 21.952 39.026 20.412 35.88 20.412C33.966 20.412 32.404 21.182 30.996 22.414L32.646 24.394C33.614 23.514 34.56 22.964 35.726 22.942C37.112 22.964 37.904 23.712 37.904 24.988C37.904 26.44 36.936 27.474 33.944 27.474V29.806C37.486 29.806 38.432 30.796 38.432 32.402C38.432 33.854 37.31 34.668 35.66 34.668C34.186 34.668 32.998 33.942 32.03 32.996L30.512 35.042C31.656 36.34 33.394 37.308 35.968 37.308Z" fill="#738047"/>
</svg>
