<svg width="20" height="24" viewBox="0 0 20 24" fill="none" xmlns="http://www.w3.org/2000/svg">
<path d="M9.99531 0.712445C10.0328 0.932757 10.75 5.14213 10.75 6.74995C10.75 9.20151 9.44688 10.9499 7.52031 11.6531L8.125 22.814C8.15781 23.4562 7.64687 23.9999 7 23.9999H4C3.35781 23.9999 2.84219 23.4609 2.875 22.814L3.47969 11.6531C1.54844 10.9499 0.25 9.19682 0.25 6.74995C0.25 5.13744 0.967188 0.932757 1.00469 0.712445C1.15469 -0.239118 3.12812 -0.25318 3.25 0.764007V7.38276C3.31094 7.54213 3.95781 7.53276 4 7.38276C4.06562 6.19682 4.37031 0.857757 4.375 0.735882C4.52969 -0.239118 6.47031 -0.239118 6.62031 0.735882C6.62969 0.862445 6.92969 6.19682 6.99531 7.38276C7.0375 7.53276 7.68906 7.54213 7.74531 7.38276V0.764007C7.86719 -0.248493 9.84531 -0.239118 9.99531 0.712445ZM15.5828 14.1046L14.8797 22.7812C14.8234 23.4374 15.3438 23.9999 16 23.9999H18.625C19.2484 23.9999 19.75 23.4984 19.75 22.8749V1.12494C19.75 0.506195 19.2484 -5.5074e-05 18.625 -5.5074e-05C14.7578 -5.5074e-05 8.24688 8.36713 15.5828 14.1046Z" fill="#738047"/>
</svg>
