<svg width="100" height="113" viewBox="0 0 100 113" fill="none" xmlns="http://www.w3.org/2000/svg">
<g filter="url(#filter0_d_38_303)">
<circle cx="46" cy="46" r="30" fill="#474F2C"/>
</g>
<path d="M60.2969 44.125H58.5177C57.7026 38.6362 53.3638 34.2974 47.875 33.4823V31.7031C47.875 31.3148 47.5602 31 47.1719 31H44.8281C44.4398 31 44.125 31.3148 44.125 31.7031V33.4823C38.6362 34.2974 34.2974 38.6362 33.4823 44.125H31.7031C31.3148 44.125 31 44.4398 31 44.8281V47.1719C31 47.5602 31.3148 47.875 31.7031 47.875H33.4823C34.2974 53.3638 38.6362 57.7026 44.125 58.5177V60.2969C44.125 60.6852 44.4398 61 44.8281 61H47.1719C47.5602 61 47.875 60.6852 47.875 60.2969V58.5177C53.3638 57.7026 57.7026 53.3638 58.5177 47.875H60.2969C60.6852 47.875 61 47.5602 61 47.1719V44.8281C61 44.4398 60.6852 44.125 60.2969 44.125ZM47.875 54.709V52.3281C47.875 51.9398 47.5602 51.625 47.1719 51.625H44.8281C44.4398 51.625 44.125 51.9398 44.125 52.3281V54.709C40.7164 53.9823 38.0185 51.2877 37.291 47.875H39.6719C40.0602 47.875 40.375 47.5602 40.375 47.1719V44.8281C40.375 44.4398 40.0602 44.125 39.6719 44.125H37.291C38.0177 40.7164 40.7123 38.0185 44.125 37.291V39.6719C44.125 40.0602 44.4398 40.375 44.8281 40.375H47.1719C47.5602 40.375 47.875 40.0602 47.875 39.6719V37.291C51.2836 38.0177 53.9815 40.7123 54.709 44.125H52.3281C51.9398 44.125 51.625 44.4398 51.625 44.8281V47.1719C51.625 47.5602 51.9398 47.875 52.3281 47.875H54.709C53.9823 51.2836 51.2877 53.9815 47.875 54.709ZM47.875 46C47.875 47.0355 47.0355 47.875 46 47.875C44.9645 47.875 44.125 47.0355 44.125 46C44.125 44.9645 44.9645 44.125 46 44.125C47.0355 44.125 47.875 44.9645 47.875 46Z" fill="white"/>
<path fill-rule="evenodd" clip-rule="evenodd" d="M72 113C74.2091 113 76 111.209 76 109L76 92.8384C76 90.6293 74.2091 88.8384 72 88.8384L50.2133 88.8384L47.7864 84.0206C47.0474 82.5536 44.953 82.5536 44.214 84.0206L41.7871 88.8384L20 88.8384C17.7909 88.8384 16 90.6293 16 92.8384L16 109C16 111.209 17.7909 113 20 113L72 113Z" fill="#DE994A"/>
<path d="M26.52 99.496C26.724 99.052 26.952 98.32 27.18 97.72L26.568 97.492C26.472 98.02 26.256 98.836 26.076 99.328L26.52 99.496ZM24.192 97.66C24.384 98.224 24.516 98.968 24.54 99.448L25.08 99.28C25.056 98.824 24.888 98.08 24.696 97.528L24.192 97.66ZM24.096 97.108H25.26V99.868H24.096V97.108ZM27.204 99.868H25.98V97.108H27.204V99.868ZM22.98 104.02C24.384 103.936 26.376 103.84 28.284 103.708L28.32 102.82C27.588 102.856 26.844 102.892 26.124 102.928V102.196H28.116V101.332H26.124V100.648H28.08V96.328H23.256V100.648H25.128V101.332H23.208V102.196H25.128V102.976C24.3 103.012 23.544 103.036 22.932 103.06L22.98 104.02ZM23.448 106.948C23.952 106.408 24.156 105.496 24.288 104.62L23.52 104.416C23.412 105.208 23.172 106.06 22.716 106.552L23.448 106.948ZM24.54 104.452C24.684 105.124 24.792 105.976 24.792 106.54L25.536 106.444C25.536 105.88 25.416 105.028 25.236 104.38L24.54 104.452ZM25.692 104.404C25.944 105.028 26.184 105.832 26.244 106.36L26.964 106.192C26.88 105.664 26.64 104.872 26.376 104.272L25.692 104.404ZM26.844 104.272C27.228 104.836 27.624 105.616 27.78 106.132L28.512 105.82C28.344 105.316 27.936 104.56 27.516 104.008L26.844 104.272ZM32.328 105.4H29.664V102.58H32.328V105.4ZM33.84 99.508V98.476H31.392V95.944H30.312V101.56H28.644V106.936H29.664V106.42H32.328V106.888H33.384V101.56H31.392V99.508H33.84ZM36.348 99.052V98.692H37.32V99.052H36.348ZM36.348 97.9H37.32V98.26H36.348V97.9ZM39.24 97.9V98.26H38.196V97.9H39.24ZM39.24 99.052H38.196V98.692H39.24V99.052ZM37.32 101.164H36.36V100.564H35.568V101.776H40.044V100.564H39.228V101.164H38.196V100.432H40.452V99.844H38.196V99.496H40.032V98.44C40.2 98.608 40.38 98.812 40.464 98.932C41.772 98.488 42.096 97.78 42.108 97.072H43.428V97.408C43.428 98.248 43.608 98.584 44.46 98.584H45.276C45.504 98.584 45.768 98.584 45.912 98.524C45.888 98.284 45.864 97.948 45.852 97.708C45.696 97.744 45.408 97.756 45.252 97.756H44.58C44.412 97.756 44.388 97.672 44.388 97.42V96.292H41.184V96.964C41.184 97.42 41.004 97.816 40.032 98.164V97.456H38.196V97.108H40.38V96.496H38.196V95.932H37.32V96.496H35.232V97.108H37.32V97.456H35.58V99.496H37.32V99.844H34.992V100.432H37.32V101.164ZM40.992 103.996H44.712V103.276H40.992V102.724C42.468 102.652 43.86 102.532 44.94 102.376L44.22 101.788C42.3 102.076 38.532 102.184 35.496 102.136C35.568 102.316 35.664 102.616 35.664 102.796C37.008 102.82 38.472 102.82 39.888 102.772V103.276H35.94V103.996H39.888V104.5H34.908V105.256H39.888V105.904C39.888 106.06 39.828 106.108 39.636 106.12C39.456 106.132 38.76 106.132 38.112 106.108C38.244 106.348 38.412 106.696 38.472 106.96C39.42 106.96 40.032 106.96 40.452 106.828C40.86 106.684 40.992 106.468 40.992 105.928V105.256H45.984V104.5H40.992V103.996ZM43.848 99.58C43.608 99.88 43.284 100.144 42.924 100.36C42.54 100.132 42.204 99.868 41.964 99.58H43.848ZM44.58 98.812L44.4 98.848H40.92V99.58H41.652L41.076 99.772C41.34 100.144 41.664 100.456 42.048 100.756C41.472 100.96 40.812 101.104 40.128 101.188C40.272 101.368 40.44 101.704 40.524 101.92C41.376 101.776 42.18 101.56 42.876 101.248C43.632 101.62 44.52 101.896 45.492 102.04C45.612 101.788 45.864 101.44 46.056 101.248C45.216 101.152 44.436 100.984 43.752 100.732C44.352 100.3 44.808 99.736 45.108 98.992L44.58 98.812ZM48.648 98.296H56.436V99.988H57.576V97.24H53.376C53.232 96.832 52.956 96.268 52.704 95.824L51.6 96.148C51.768 96.484 51.96 96.892 52.08 97.24H47.556V99.988H48.648V98.296ZM53.124 103.432H56.556V102.388H53.124V100.648H55.956V99.592H49.2V100.648H51.972V105.22C51.132 104.848 50.46 104.212 50.028 103.084C50.148 102.616 50.232 102.1 50.304 101.572L49.176 101.452C48.936 103.564 48.324 105.244 47.016 106.228C47.268 106.396 47.736 106.78 47.904 106.984C48.648 106.336 49.212 105.484 49.608 104.464C50.7 106.372 52.416 106.768 54.78 106.768H57.648C57.696 106.432 57.876 105.904 58.056 105.64C57.372 105.652 55.368 105.652 54.84 105.652C54.228 105.652 53.652 105.628 53.124 105.532V103.432ZM67.08 97.66C66.96 97.144 66.708 96.4 66.48 95.812L65.424 96.076C65.652 96.676 65.892 97.468 65.976 97.972L67.08 97.66ZM69.636 98.032H63.096V99.112H69.636V98.032ZM65.712 104.608C65.592 103.396 65.22 101.308 64.848 99.688L63.852 99.916C64.188 101.548 64.512 103.684 64.608 104.932L65.712 104.608ZM62.004 95.98C61.368 97.732 60.3 99.484 59.16 100.6C59.352 100.864 59.676 101.464 59.784 101.728C60.12 101.38 60.456 100.984 60.768 100.54V106.924H61.896V98.788C62.34 97.984 62.748 97.144 63.06 96.304L62.004 95.98ZM67.812 105.388C68.244 103.852 68.7 101.62 69.024 99.808L67.86 99.616C67.656 101.38 67.212 103.804 66.78 105.388H62.616V106.456H70.08V105.388H67.812Z" fill="white"/>
<defs>
<filter id="filter0_d_38_303" x="0" y="0" width="100" height="100" filterUnits="userSpaceOnUse" color-interpolation-filters="sRGB">
<feFlood flood-opacity="0" result="BackgroundImageFix"/>
<feColorMatrix in="SourceAlpha" type="matrix" values="0 0 0 0 0 0 0 0 0 0 0 0 0 0 0 0 0 0 127 0" result="hardAlpha"/>
<feOffset dx="4" dy="4"/>
<feGaussianBlur stdDeviation="10"/>
<feComposite in2="hardAlpha" operator="out"/>
<feColorMatrix type="matrix" values="0 0 0 0 0.4625 0 0 0 0 0.4625 0 0 0 0 0.4625 0 0 0 0.3 0"/>
<feBlend mode="normal" in2="BackgroundImageFix" result="effect1_dropShadow_38_303"/>
<feBlend mode="normal" in="SourceGraphic" in2="effect1_dropShadow_38_303" result="shape"/>
</filter>
</defs>
</svg>
