<svg width="22" height="20" viewBox="0 0 22 20" fill="none" xmlns="http://www.w3.org/2000/svg">
<path d="M4.28587 5.46412L7.63631 6.88014C8.79097 3.77465 10.465 1.38478 12.1972 0.264689C9.05117 0.078451 6.00293 1.67233 4.0424 4.52265C3.82289 4.84257 3.95512 5.32435 4.28587 5.46412ZM8.62527 7.29832L16.4503 10.6053C17.6237 5.98247 17.0639 1.7824 15.0515 0.932328C14.8087 0.829497 14.5551 0.779986 14.2939 0.779986C12.3901 0.780367 10.0851 3.41436 8.62527 7.29832ZM17.6109 2.55439C17.815 3.17518 17.9662 3.87215 18.044 4.65633C18.2323 6.55642 17.9974 8.77833 17.4222 11.0159L20.7894 12.4387C21.1205 12.5785 21.4886 12.3081 21.4971 11.8991C21.5733 8.25465 20.122 4.7603 17.6109 2.55439ZM18.8748 17.3118H11.0347L13.1655 10.5143L11.1922 9.68019L8.80016 17.3114H1.02499C0.734935 17.3114 0.5 17.5841 0.5 17.9211V19.1403C0.5 19.4769 0.734935 19.75 1.02499 19.75H18.8748C19.1649 19.75 19.3998 19.4769 19.3998 19.1403V17.9211C19.3998 17.5845 19.1649 17.3118 18.8748 17.3118Z" fill="white"/>
</svg>
